<svg width="36" height="37" viewBox="0 0 36 37" fill="none" xmlns="http://www.w3.org/2000/svg">
<circle cx="18" cy="18.5" r="18" fill="#45577B"/>
<path d="M17.4553 27.836C16.2873 27.836 15.2793 27.676 14.4313 27.356C13.5833 27.02 12.8793 26.564 12.3193 25.988C11.7753 25.396 11.3673 24.7 11.0953 23.9C10.8393 23.084 10.7113 22.188 10.7113 21.212V10.868H14.4553V20.9C14.4553 21.572 14.5273 22.148 14.6713 22.628C14.8313 23.092 15.0393 23.476 15.2953 23.78C15.5673 24.068 15.8873 24.276 16.2553 24.404C16.6393 24.532 17.0553 24.596 17.5033 24.596C18.4153 24.596 19.1513 24.316 19.7113 23.756C20.2873 23.196 20.5753 22.244 20.5753 20.9V10.868H24.3193V21.212C24.3193 22.188 24.1833 23.084 23.9113 23.9C23.6393 24.716 23.2233 25.42 22.6633 26.012C22.1033 26.588 21.3913 27.036 20.5273 27.356C19.6633 27.676 18.6393 27.836 17.4553 27.836Z" fill="white"/>
</svg>
